<?xml version="1.0" standalone="no"?>
<!DOCTYPE svg PUBLIC "-//W3C//DTD SVG 20010904//EN"
 "http://www.w3.org/TR/2001/REC-SVG-20010904/DTD/svg10.dtd">
<svg version="1.0" xmlns="http://www.w3.org/2000/svg"
 width="1366.000000pt" height="1366.000000pt" viewBox="0 0 1366.000000 1366.000000"
 preserveAspectRatio="xMidYMid meet">

<g transform="translate(0.000000,1366.000000) scale(0.100000,-0.100000)"
fill="#000000" stroke="none">
<path d="M0 6830 l0 -6830 6830 0 6830 0 0 6830 0 6830 -6830 0 -6830 0 0
-6830z m7510 4576 c952 -116 1806 -491 2514 -1105 193 -167 468 -456 569 -597
47 -65 100 -179 123 -264 25 -91 25 -290 0 -385 -138 -532 -753 -773 -1210
-475 -45 29 -105 83 -161 146 -142 156 -362 373 -455 448 -437 350 -959 568
-1535 642 -158 20 -513 23 -665 5 -589 -69 -1114 -286 -1570 -647 -121 -96
-392 -371 -481 -489 -403 -531 -614 -1117 -636 -1765 -32 -974 416 -1904 1203
-2497 552 -416 1285 -638 1965 -593 875 57 1626 447 2187 1136 171 211 356
308 608 321 243 12 453 -72 620 -250 148 -157 214 -326 214 -547 0 -290 -104
-469 -510 -884 -784 -801 -1821 -1281 -2950 -1367 -199 -15 -668 -6 -850 16
-1022 122 -1907 532 -2654 1228 -314 292 -639 712 -861 1112 -322 578 -510
1208 -566 1890 -15 186 -6 687 15 865 129 1060 583 1998 1326 2740 767 765
1783 1235 2880 1329 164 15 721 6 880 -13z m-1368 -2775 c89 -24 168 -73 237
-146 199 -214 179 -552 -45 -741 -216 -182 -322 -328 -393 -539 -140 -420 -29
-868 289 -1168 228 -216 568 -333 867 -299 260 30 475 128 654 299 103 98 165
179 224 294 89 172 125 321 125 514 0 193 -36 342 -125 514 -61 118 -123 198
-232 301 -164 154 -218 263 -217 435 1 289 220 507 509 507 176 0 280 -55 471
-246 340 -343 549 -768 609 -1246 23 -176 17 -463 -13 -630 -165 -921 -876
-1611 -1807 -1755 -134 -21 -429 -24 -565 -6 -733 97 -1340 531 -1660 1186
-358 732 -274 1583 222 2242 130 174 359 388 479 449 111 56 250 69 371 35z"/>
</g>
</svg>
